<?xml version="1.0" encoding="utf-8"?>
<!-- Generator: Adobe Illustrator 26.3.1, SVG Export Plug-In . SVG Version: 6.00 Build 0)  -->
<svg version="1.1" id="Calque_1" xmlns="http://www.w3.org/2000/svg" xmlns:xlink="http://www.w3.org/1999/xlink" x="0px" y="0px"
	 viewBox="0 0 756.7 146.8" style="enable-background:new 0 0 756.7 146.8;" xml:space="preserve">
<style type="text/css">
	.st0{fill:#000000;}
</style>
<g id="Calque_2_00000137827870542922725210000006364476391235602821_">
	<g id="Calque_1-2">
		<polygon class="st0" points="0,2.3 58.9,2.3 58.9,17.4 39.1,17.4 39.1,78.8 19.9,78.8 19.9,17.4 0,17.4 		"/>
		<polygon class="st0" points="133.6,2.4 133.6,78.8 114.4,78.8 114.4,46.2 86.5,46.2 86.5,78.8 67.2,78.8 67.2,2.4 86.5,2.4 
			86.5,30 114.4,30 114.4,2.4 		"/>
		<polygon class="st0" points="145.1,2.4 201.6,2.4 201.6,17.2 164.1,17.2 164.1,31.1 199.1,31.1 199.1,45.6 164.1,45.6 164.1,63.8 
			205,63.8 205,78.8 145.1,78.8 		"/>
		<polygon class="st0" points="245.6,2.4 263.8,2.4 263.8,33.6 292.4,2.4 315.3,2.4 288.2,30.8 317.5,78.8 295.9,78.8 275.5,44.2 
			263.8,56.4 263.8,78.8 245.6,78.8 		"/>
		<path class="st0" d="M354.6,81c-24.2,0-38-18.6-38-40.7c0-20.7,13.1-40.3,37.7-40.3c4.8,0,9.5,0.7,14,2.3
			c23.4,8.1,24.9,33.6,24.9,38.7c0,13.2-6.1,25.1-14.5,31.9C371.2,79.1,362.5,80.9,354.6,81 M367.8,21.5c-3.5-3.6-8.4-5.7-13.4-5.6
			c-11.6,0-19,10.2-19,24c0,18.2,10.2,24.9,19.2,24.9s18.9-6.5,19.4-22.5C374.3,34.2,372.2,26.1,367.8,21.5"/>
		<path class="st0" d="M439.9,81c-24.3,0-38-18.6-38-40.7C401.9,19.6,415,0,439.6,0c4.8,0,9.5,0.7,14,2.3
			c23.4,8.1,24.9,33.6,24.9,38.7c0,13.2-6.1,25.1-14.5,31.9C456.4,79.1,447.8,80.9,439.9,81 M453.1,21.5c-3.5-3.6-8.4-5.7-13.4-5.6
			c-11.6,0-19,10.2-19,24c0,18.2,10.2,24.9,19.2,24.9s18.8-6.5,19.4-22.5C459.6,34.3,457.4,26.2,453.1,21.5"/>
		<path class="st0" d="M488.5,2.4h30.7c12.6,0,23.7,0,30.4,9.6c2.9,4.3,4.3,10.5,4.3,15.7c0,4.1-0.9,8.2-2.6,11.9
			c-6.6,13.6-20.7,14-31.1,14.2h-12.7v25h-19.2V2.4z M507.7,16.5v23.2h11.5c7.1,0,15.8-0.2,15.8-12c0-11.1-9.6-11.1-15.2-11.1
			L507.7,16.5z"/>
		<polygon class="st0" points="563.2,2.3 582.3,2.3 582.3,62.7 612.2,62.7 612.2,78.8 563.2,78.8 		"/>
		<polygon class="st0" points="621,2.4 677.5,2.4 677.5,17.2 640.1,17.2 640.1,31.1 675.1,31.1 675.1,45.6 640.1,45.6 640.1,63.8 
			680.9,63.8 680.9,78.8 621,78.8 		"/>
		<path class="st0" d="M701.5,55.9c2,2.5,4.5,4.5,7.4,6c4.5,2.4,9.6,3.7,14.7,3.7c7.6,0,14.1-3.6,14.1-8.9c0-6.1-7.7-7-13.3-7.8
			c-4.2-0.5-8.5-1.1-12.6-2c-4.7-1-20.6-4.3-20.6-20.8c0-19.7,17.5-25.5,30.7-25.5c17.7,0,27.2,8.6,33.8,14.5l-14.1,10.1
			c-2.2-2.4-4.8-4.5-7.6-6.1c-3.8-2.1-8.1-3.3-12.5-3.4c-7.6,0-11.4,4.3-11.4,8c0,5.9,6.5,6.7,9.7,7.1c8.1,1,19.1,3,23.4,4.5
			c8.8,3.2,13.2,10.1,13.2,18.7c-0.1,6-2.2,11.7-6.1,16.2c-6.9,8-18,10.3-28.7,10.3c-21.5,0-30.1-10-34.9-15.5L701.5,55.9z"/>
		<path class="st0" d="M12.6,116c0,2,1.9,3.5,4.7,4.1l5.6,1.1c6.6,1.3,14.9,3.4,14.9,11.9s-8.6,13.4-17.1,13.4
			c-10.5,0-17.3-5.2-18.8-14h9.6c1.1,4.3,4.4,6.2,9.5,6.2c3.3,0,7-1.1,7-4.4c0-2.6-3.1-3.9-7.6-4.9l-5-1
			c-6.6-1.4-12.6-4.6-12.6-11.9c0-8.3,9-12.2,16.9-12.2s15.6,3.5,17,12.5h-9.5c-1-3-3.9-4.8-8-4.8C15.4,112,12.6,113.4,12.6,116"/>
		<polygon class="st0" points="73.9,105 73.9,113.4 52.3,113.4 52.3,120.6 72.8,120.6 72.8,129.1 52.3,129.1 52.3,137.3 73.9,137.3 
			73.9,145.8 42.6,145.8 42.6,105 		"/>
		<path class="st0" d="M97.9,146.5c-12.7,0-20.4-8.1-20.4-21.2c0-12.9,8-21.1,20.7-21.1c10.2,0,17.5,6.7,18.9,15.9h-9.5
			c-1.1-5.6-5.2-8-9.7-8c-5.7,0-10.2,4.8-10.2,13.1c0,8.6,4.4,13.2,10.3,13.2c4.2,0,8.8-1.8,9.9-8h9.5
			C115.9,140,108.2,146.5,97.9,146.5"/>
		<path class="st0" d="M120.3,125.4c0-12.7,8.6-21.1,21.2-21.1s21.2,8.4,21.2,21.1s-8.7,21.1-21.2,21.1S120.3,138.1,120.3,125.4
			 M152.5,125.4c0-8.7-5-13.2-11-13.2s-11,4.5-11,13.2s5,13.2,11,13.2S152.5,134.1,152.5,125.4"/>
		<polygon class="st0" points="176.9,117.7 176.9,145.8 167.6,145.8 167.6,105 179.3,105 195.7,133.1 195.7,105 205,105 205,145.8 
			193.3,145.8 		"/>
		<path class="st0" d="M249.7,125.4c0,15.6-10.5,20.4-23.9,20.4h-13.4V105h13.4C239.1,105,249.7,109.8,249.7,125.4 M222,113.1v24.6
			h4c7.1,0,13.5-1.5,13.5-12.3s-6.4-12.3-13.5-12.3H222z"/>
		<polygon class="st0" points="295.9,137.3 295.9,145.8 266.7,145.8 266.7,105 276.3,105 276.3,137.3 		"/>
		<path class="st0" d="M295.1,125.4c0-12.7,8.6-21.1,21.2-21.1s21.2,8.4,21.2,21.1s-8.7,21.1-21.2,21.1S295.1,138.1,295.1,125.4
			 M327.2,125.4c0-8.7-5-13.2-11-13.2s-11,4.5-11,13.2s5,13.2,11,13.2S327.2,134.1,327.2,125.4"/>
		<polygon class="st0" points="356.9,135 366.3,105 376,105 362.2,145.8 351,145.8 337.2,105 347.5,105 		"/>
		<polygon class="st0" points="410.7,105 410.7,113.4 389,113.4 389,120.6 409.5,120.6 409.5,129.1 389,129.1 389,137.3 
			410.7,137.3 410.7,145.8 379.4,145.8 379.4,105 		"/>
		<path class="st0" d="M462.5,111.5c3.1,0,5.7,2.5,5.7,5.7c0,1.5-0.6,3-1.7,4l-2.7,2.7l-13,13l-13-13l-2.5-2.5c-2.2-2.2-2.2-5.8,0-8
			c2.2-2.2,5.8-2.2,8,0l2.5,2.5l5,5l5-5l2.7-2.7C459.5,112.2,460.9,111.6,462.5,111.5 M462.4,104.6c-3.4,0-6.6,1.3-9,3.7l-2.7,2.7
			l-2.5-2.5c-5.1-4.8-13.1-4.6-17.9,0.5c-4.6,4.9-4.6,12.6,0,17.5l2.5,2.5l17.9,17.9l17.9-17.9l2.7-2.7c4.9-5,4.9-13,0-17.9
			C469,105.9,465.7,104.6,462.4,104.6"/>
	</g>
</g>
</svg>
